<svg width="283" height="254" viewBox="0 0 283 254" fill="none" xmlns="http://www.w3.org/2000/svg">
<path d="M179.882 20.1896C183.698 13.7435 187.354 7.19428 191.332 0.84668C203.83 21.8202 215.952 43.0177 228.329 64.0674C246.4 95.1648 264.623 126.177 282.648 157.301C253.401 157.499 224.149 157.301 194.897 157.4C193.8 157.346 192.613 157.655 191.569 157.248C190.758 155.72 191.273 153.807 191.049 152.123C190.086 136.409 185.074 120.963 176.63 107.676C169.077 95.4605 158.545 85.1932 146.45 77.4972C142.37 84.7811 138.038 91.9216 133.845 99.1427C122.619 118.562 111.2 137.869 99.9835 157.292C109.35 157.499 118.731 157.324 128.106 157.382C147.526 157.382 166.945 157.378 186.364 157.382C187.967 157.404 189.625 157.145 191.184 157.62C191.645 159.044 191.287 160.567 191.242 162.027C190.705 178.239 185.826 194.267 177.324 208.073C169.74 220.661 159.052 231.287 146.679 239.175C131.533 248.591 113.745 253.945 95.8623 253.707C76.0982 253.895 56.379 247.44 40.3465 235.923C28.8787 227.739 19.3192 216.947 12.4743 204.642C4.54096 190.486 0.334612 174.221 0.648185 157.982C0.374929 136.27 8.32176 114.727 22.0562 97.978C29.2505 89.1577 38.0798 81.6946 47.8722 75.898C58.6457 69.7206 70.5704 65.4919 82.8938 63.8658C89.2593 62.9206 95.7189 63.1177 102.129 63.2521C117.803 64.0808 133.097 69.2861 146.459 77.43C157.654 58.3828 168.745 39.2728 179.882 20.1896Z" fill="#B9B9B9"/>
</svg>
