<svg width="48" height="49" viewBox="0 0 48 49" fill="none" xmlns="http://www.w3.org/2000/svg">
<path fill-rule="evenodd" clip-rule="evenodd" d="M13.423 8.02606C13.685 8.81198 13.2602 9.66146 12.4743 9.92344L11.438 10.2689C10.2033 10.6805 9.38982 10.9537 8.78528 11.23C8.21368 11.4913 7.95726 11.7006 7.78694 11.9157C7.61662 12.1307 7.47158 12.4283 7.34816 13.0446C7.21764 13.6963 7.13796 14.5507 7.02014 15.8469L6.28618 23.9204L6.18948 24.984C7.79574 23.7404 9.81144 23.0004 12 23.0004C16.6902 23.0004 20.5866 26.3994 21.3604 30.8684C22.2224 30.619 23.1112 30.4942 24 30.4942V33.4942C23.261 33.4942 22.522 33.6202 21.8158 33.8722L21.3778 34.0286C20.6468 38.5488 16.7265 42.0004 12 42.0004C6.76 42.0004 2.51088 37.7218 2.5 32.4844C2.50092 31.9228 2.55056 31.3728 2.64492 30.8382L4.03944 15.4984C4.14836 14.2998 4.2407 13.2838 4.40656 12.4555C4.58308 11.574 4.8655 10.7724 5.4352 10.0531C6.00488 9.33378 6.72054 8.87526 7.53814 8.50156C8.30642 8.15038 9.27428 7.8278 10.4161 7.44724L11.5256 7.07738C12.3116 6.81542 13.161 7.24016 13.423 8.02606Z" fill="#80AD01"/>
<path d="M41.8104 24.984C40.2042 23.7404 38.1886 23.0004 36 23.0004C31.3098 23.0004 27.4134 26.3994 26.6396 30.8684C25.7776 30.619 24.8888 30.4944 24 30.4942V33.4942C24.739 33.4942 25.478 33.6202 26.1842 33.8722L26.6222 34.0286C27.3532 38.5488 31.2734 42.0004 36 42.0004C41.24 42.0004 45.489 37.7218 45.5 32.4844C45.499 31.9228 45.4494 31.3728 45.355 30.8382L43.9606 15.4984C43.8516 14.2998 43.7592 13.2838 43.5934 12.4555C43.4168 11.574 43.1344 10.7724 42.5648 10.0531C41.995 9.33378 41.2794 8.87526 40.4618 8.50156C39.6936 8.15038 38.7258 7.8278 37.584 7.44724L36.4744 7.07738C35.6884 6.81542 34.839 7.24016 34.577 8.02606C34.315 8.81198 34.7398 9.66146 35.5256 9.92344L36.562 10.2689C37.7968 10.6805 38.6102 10.9537 39.2146 11.23C39.7862 11.4913 40.0428 11.7006 40.213 11.9157C40.3834 12.1307 40.5284 12.4283 40.6518 13.0446C40.7824 13.6963 40.862 14.5507 40.9798 15.8469L41.8104 24.984Z" fill="#80AD01" fill-opacity="0.56"/>
</svg>
