<svg width="11" height="12" viewBox="0 0 11 12" fill="none" xmlns="http://www.w3.org/2000/svg">
<path d="M10.9712 4.94147C10.8988 4.71874 10.7012 4.56104 10.4684 4.53998L7.29306 4.2517L6.03813 1.31367C5.94548 1.09781 5.73466 0.958496 5.50001 0.958496C5.26535 0.958496 5.05445 1.09781 4.96239 1.31367L3.70746 4.2517L0.531585 4.53998C0.298778 4.56146 0.101639 4.71916 0.0287928 4.94147C-0.0436342 5.16421 0.0232538 5.40852 0.199328 5.56294L2.59966 7.66768L1.89192 10.7848C1.84014 11.014 1.9291 11.251 2.11927 11.3885C2.22149 11.4628 2.34159 11.4998 2.4621 11.4998C2.56567 11.4998 2.66931 11.4723 2.76188 11.4169L5.50001 9.77973L8.23763 11.4169C8.43846 11.5369 8.69099 11.5259 8.88074 11.3885C9.07092 11.251 9.15987 11.014 9.10809 10.7848L8.40036 7.66768L10.8007 5.56294C10.9767 5.40852 11.0436 5.16471 10.9712 4.94147Z" fill="#C4C6C2"/>
</svg>
