<svg width="24" height="25" viewBox="0 0 24 25" fill="none" xmlns="http://www.w3.org/2000/svg">
<path d="M20.0402 7.57006L14.2802 3.54006C12.7102 2.44006 10.3002 2.50006 8.79023 3.67006L3.78023 7.58006C2.78023 8.36006 1.99023 9.96006 1.99023 11.2201V18.1201C1.99023 20.6701 4.06023 22.7501 6.61023 22.7501H17.3902C19.9402 22.7501 22.0102 20.6801 22.0102 18.1301V11.3501C22.0102 10.0001 21.1402 8.34006 20.0402 7.57006Z" fill="#80AD01"/>
<path d="M12 19.5C11.59 19.5 11.25 19.16 11.25 18.75V15.75C11.25 15.34 11.59 15 12 15C12.41 15 12.75 15.34 12.75 15.75V18.75C12.75 19.16 12.41 19.5 12 19.5Z" fill="#CCE094"/>
</svg>
