<svg width="25" height="25" viewBox="0 0 25 25" fill="none" xmlns="http://www.w3.org/2000/svg">
<path d="M7.57301 2.75H5.67301C3.48301 2.75 2.33301 3.9 2.33301 6.08V7.98C2.33301 10.16 3.48301 11.31 5.66301 11.31H7.56301C9.74301 11.31 10.893 10.16 10.893 7.98V6.08C10.903 3.9 9.75301 2.75 7.57301 2.75Z" fill="#80AD01"/>
<path d="M19.0034 2.75H17.1034C14.9234 2.75 13.7734 3.9 13.7734 6.08V7.98C13.7734 10.16 14.9234 11.31 17.1034 11.31H19.0034C21.1834 11.31 22.3334 10.16 22.3334 7.98V6.08C22.3334 3.9 21.1834 2.75 19.0034 2.75Z" fill="#B4CD6D"/>
<path d="M19.0034 14.1801H17.1034C14.9234 14.1801 13.7734 15.3301 13.7734 17.5101V19.4101C13.7734 21.5901 14.9234 22.7401 17.1034 22.7401H19.0034C21.1834 22.7401 22.3334 21.5901 22.3334 19.4101V17.5101C22.3334 15.3301 21.1834 14.1801 19.0034 14.1801Z" fill="#80AD01"/>
<path d="M7.57301 14.1801H5.67301C3.48301 14.1801 2.33301 15.3301 2.33301 17.5101V19.4101C2.33301 21.6001 3.48301 22.7501 5.66301 22.7501H7.56301C9.74301 22.7501 10.893 21.6001 10.893 19.4201V17.5201C10.903 15.3301 9.75301 14.1801 7.57301 14.1801Z" fill="#B4CD6D"/>
</svg>
