<svg width="25" height="25" viewBox="0 0 25 25" fill="none" xmlns="http://www.w3.org/2000/svg">
<path d="M8.41699 23.25C7.45049 23.25 6.66699 22.4665 6.66699 21.5C6.66699 20.5335 7.45049 19.75 8.41699 19.75C9.38349 19.75 10.167 20.5335 10.167 21.5C10.167 22.4665 9.38349 23.25 8.41699 23.25Z" fill="#80AD01"/>
<path d="M16.417 23.25C15.4505 23.25 14.667 22.4665 14.667 21.5C14.667 20.5335 15.4505 19.75 16.417 19.75C17.3835 19.75 18.167 20.5335 18.167 21.5C18.167 22.4665 17.3835 23.25 16.417 23.25Z" fill="#80AD01"/>
<path d="M19.827 4.69L20.027 7.14C20.067 7.61 19.697 8 19.227 8H3.91699C3.49699 8 3.14699 7.67999 3.11699 7.25999C2.98699 5.48999 4.33699 4.05 6.10699 4.05H18.377C18.477 3.61 18.677 3.19 18.987 2.84C19.477 2.31 20.177 2 20.897 2H22.667C23.077 2 23.417 2.34 23.417 2.75C23.417 3.16 23.077 3.5 22.667 3.5H20.927C20.617 3.5 20.327 3.63001 20.117 3.85001C19.907 4.08001 19.807 4.38 19.827 4.69Z" fill="#B4CD6D"/>
<path d="M4.15694 9.5H19.4969C19.9169 9.5 20.2569 9.82 20.2969 10.23L20.6569 14.58C20.7969 16.28 19.4569 17.75 17.7469 17.75H6.62694C5.12694 17.75 3.80693 16.52 3.69693 15.02L3.36693 10.35C3.32693 9.89001 3.68694 9.5 4.15694 9.5Z" fill="#80AD01"/>
</svg>
