<svg width="48" height="49" viewBox="0 0 48 49" fill="none" xmlns="http://www.w3.org/2000/svg">
<path d="M32.0402 19.3201L26.2802 15.2901C24.7102 14.1901 22.3002 14.2501 20.7902 15.4201L15.7802 19.3301C14.7802 20.1101 13.9902 21.7101 13.9902 22.9701V29.8701C13.9902 32.4201 16.0602 34.5001 18.6102 34.5001H29.3902C31.9402 34.5001 34.0102 32.4301 34.0102 29.8801V23.1001C34.0102 21.7501 33.1402 20.0901 32.0402 19.3201Z" fill="#80AD01"/>
<path d="M24 31.25C23.59 31.25 23.25 30.91 23.25 30.5V27.5C23.25 27.09 23.59 26.75 24 26.75C24.41 26.75 24.75 27.09 24.75 27.5V30.5C24.75 30.91 24.41 31.25 24 31.25Z" fill="#CCE094"/>
</svg>
