<svg width="40" height="42" viewBox="0 0 40 42" fill="none" xmlns="http://www.w3.org/2000/svg">
<path fill-rule="evenodd" clip-rule="evenodd" d="M0 18.5H40V20.5C40 28.0424 40 31.8138 37.6568 34.1568C37.048 34.7656 36.3428 35.2164 35.5 35.5498V40.5C35.5 41.3284 34.8284 42 34 42C33.1716 42 32.5 41.3284 32.5 40.5V36.2426C30.3602 36.5 27.6128 36.5 24 36.5H16C12.3873 36.5 9.63978 36.5 7.5 36.2426V40.5C7.5 41.3284 6.82842 42 6 42C5.17158 42 4.5 41.3284 4.5 40.5V35.5498C3.65722 35.2164 2.95198 34.7656 2.34314 34.1568C2.38419e-07 31.8138 0 28.0424 0 20.5V18.5ZM12.5 27.5C12.5 26.6716 13.1716 26 14 26H26C26.8284 26 27.5 26.6716 27.5 27.5C27.5 28.3284 26.8284 29 26 29H14C13.1716 29 12.5 28.3284 12.5 27.5Z" fill="#626754"/>
<path d="M2.34314 2.84314C2.38419e-07 5.1863 0 8.95752 0 16.5V18.5H40V16.5C40 8.95752 40 5.1863 37.6568 2.84314C35.3138 0.5 31.5424 0.5 24 0.5H16C8.45752 0.5 4.6863 0.5 2.34314 2.84314Z" fill="#626754" fill-opacity="0.56"/>
<path d="M14 8C13.1716 8 12.5 8.67158 12.5 9.5C12.5 10.3284 13.1716 11 14 11H26C26.8284 11 27.5 10.3284 27.5 9.5C27.5 8.67158 26.8284 8 26 8H14Z" fill="#626754"/>
</svg>
