<svg width="84" height="26" viewBox="0 0 84 26" fill="none" xmlns="http://www.w3.org/2000/svg">
<rect x="0.25" width="83" height="26" rx="4" fill="#F5F5F5"/>
<path d="M15.4908 14.9132C15.1499 14.9132 14.8056 14.8993 14.4577 14.8715C14.1134 14.8437 13.7777 14.7967 13.4508 14.7306C13.1273 14.6645 12.8212 14.5793 12.5325 14.475C12.2438 14.3671 11.9864 14.235 11.7603 14.0784C11.5377 13.9219 11.3534 13.7376 11.2073 13.5254C11.0647 13.3098 10.976 13.0628 10.9412 12.7845C10.9308 12.7011 10.9256 12.6141 10.9256 12.5237C10.9256 12.3184 10.9621 12.0698 11.0351 11.7776C11.1082 11.4854 11.2647 11.1271 11.5047 10.7028L12.1621 11.1932C12.1377 11.235 12.1029 11.2958 12.0577 11.3758C12.016 11.4558 11.9725 11.548 11.9273 11.6524C11.8821 11.7532 11.8403 11.8628 11.8021 11.9811C11.7673 12.0993 11.7429 12.2176 11.729 12.3358C11.7186 12.4019 11.7134 12.4663 11.7134 12.5289C11.7134 12.5776 11.7186 12.6419 11.729 12.7219C11.7395 12.8019 11.776 12.8837 11.8386 12.9671C11.9534 13.1271 12.1186 13.275 12.3343 13.4106C12.5499 13.5463 12.8108 13.6645 13.1169 13.7654C13.4229 13.8663 13.7743 13.9463 14.1708 14.0054C14.5708 14.0611 15.0108 14.0889 15.4908 14.0889C15.7725 14.0889 16.0821 14.0767 16.4195 14.0524C16.7569 14.028 17.1012 13.9845 17.4525 13.9219C17.8038 13.8593 18.1534 13.7741 18.5012 13.6663C18.8525 13.5584 19.1829 13.4193 19.4925 13.2489C19.4786 13.0993 19.449 12.9463 19.4038 12.7898C19.3621 12.6298 19.3116 12.4732 19.2525 12.3202C19.1934 12.1671 19.129 12.0193 19.0595 11.8767C18.9899 11.7341 18.9221 11.6037 18.856 11.4854C18.7899 11.3637 18.729 11.2576 18.6734 11.1671C18.6177 11.0732 18.5743 10.9984 18.5429 10.9428L19.2369 10.4941C19.2682 10.5498 19.3151 10.6332 19.3777 10.7445C19.4438 10.8558 19.5151 10.9863 19.5916 11.1358C19.6716 11.2819 19.7516 11.4419 19.8316 11.6158C19.9116 11.7898 19.9829 11.9671 20.0456 12.148C20.1116 12.3254 20.1638 12.4993 20.2021 12.6698C20.2299 12.8158 20.2438 12.9515 20.2438 13.0767C20.2438 13.1011 20.2438 13.1254 20.2438 13.1498C20.2299 13.3341 20.169 13.5011 20.0612 13.6506C19.9534 13.7967 19.8108 13.9289 19.6334 14.0471C19.456 14.1654 19.2508 14.2698 19.0177 14.3602C18.7882 14.4471 18.5447 14.5237 18.2873 14.5898C18.0334 14.6524 17.7725 14.7045 17.5047 14.7463C17.2403 14.788 16.9847 14.8211 16.7377 14.8454C16.4908 14.8698 16.2595 14.8871 16.0438 14.8976C15.8282 14.908 15.6438 14.9132 15.4908 14.9132ZM16.5343 16.1237L17.296 16.8854L16.5238 17.6576L15.7621 16.8958L16.5343 16.1237ZM14.416 16.1289L15.1777 16.8958L14.4056 17.668L13.6438 16.9011L14.416 16.1289ZM15.5012 17.7202L16.1899 18.4089L15.496 19.1028L14.8073 18.4141L15.5012 17.7202ZM24.0603 14.9132C23.7438 14.9132 23.4603 14.8802 23.2099 14.8141C22.9595 14.7445 22.7473 14.635 22.5734 14.4854C22.3995 14.3358 22.2656 14.1428 22.1716 13.9063C22.0812 13.6663 22.036 13.3758 22.036 13.035C22.036 12.7776 22.036 12.4906 22.036 12.1741C22.0395 11.8576 22.0412 11.5289 22.0412 11.188C22.0412 10.8471 22.0377 10.5011 22.0308 10.1498C22.0273 9.79845 22.0203 9.45758 22.0099 9.12714C21.9995 8.79323 21.9838 8.47845 21.9629 8.1828C21.9421 7.88714 21.916 7.6228 21.8847 7.38975L22.6986 7.24367C22.7299 7.42801 22.756 7.6454 22.7769 7.89584C22.7977 8.14627 22.8151 8.41584 22.829 8.70453C22.8429 8.99323 22.8516 9.2941 22.8551 9.60714C22.8621 9.91671 22.8656 10.2211 22.8656 10.5202C22.8656 10.948 22.8673 11.3602 22.8708 11.7567C22.8708 11.8889 22.8708 12.0228 22.8708 12.1584C22.8708 12.4228 22.869 12.6871 22.8656 12.9515C22.8656 13.1776 22.8829 13.3637 22.9177 13.5098C22.956 13.6558 23.0186 13.7741 23.1056 13.8645C23.196 13.9515 23.3143 14.0124 23.4603 14.0471C23.6064 14.0819 23.7908 14.0993 24.0134 14.0993H24.1647V14.9132H24.0603ZM24.0625 14.0993C24.2642 14.0993 24.4468 14.0611 24.6103 13.9845C24.7773 13.9045 24.9268 13.8002 25.059 13.6715C25.1947 13.5393 25.3147 13.388 25.419 13.2176C25.5234 13.0437 25.6138 12.8628 25.6903 12.675C25.7703 12.4837 25.8364 12.2924 25.8886 12.1011C25.9442 11.9098 25.9895 11.7271 26.0242 11.5532L26.8434 11.715C26.8155 11.8089 26.7825 11.9202 26.7442 12.0489C26.706 12.1776 26.6695 12.3132 26.6347 12.4558C26.5999 12.5984 26.5703 12.7428 26.546 12.8889C26.5216 13.035 26.5095 13.1724 26.5095 13.3011C26.5095 13.4054 26.5182 13.5098 26.5355 13.6141C26.5564 13.715 26.5912 13.8054 26.6399 13.8854C26.6921 13.9619 26.7616 14.0245 26.8486 14.0732C26.9355 14.1219 27.0451 14.1463 27.1773 14.1463C27.3616 14.1463 27.5268 14.1011 27.6729 14.0106C27.8225 13.9167 27.9547 13.7932 28.0695 13.6402C28.1842 13.4871 28.2834 13.3132 28.3668 13.1184C28.4538 12.9237 28.5286 12.7254 28.5912 12.5237C28.6538 12.3184 28.7042 12.1184 28.7425 11.9237C28.7842 11.7254 28.8173 11.5498 28.8416 11.3967C28.9877 11.4245 29.1216 11.4506 29.2434 11.475C29.3686 11.4993 29.499 11.5237 29.6347 11.548V11.5532C29.6208 11.6263 29.6016 11.7237 29.5773 11.8454C29.5564 11.9671 29.5355 12.0976 29.5147 12.2367C29.4938 12.3758 29.4764 12.5167 29.4625 12.6593C29.4486 12.8019 29.4416 12.9306 29.4416 13.0454C29.4416 13.1915 29.4538 13.3324 29.4782 13.468C29.5025 13.6002 29.5477 13.7184 29.6138 13.8228C29.6799 13.9237 29.7686 14.0054 29.8799 14.068C29.9947 14.1306 30.139 14.1619 30.3129 14.1619C30.466 14.1619 30.5982 14.1358 30.7095 14.0837C30.8208 14.0315 30.9112 13.9602 30.9808 13.8698C31.0538 13.7758 31.1077 13.668 31.1425 13.5463C31.1773 13.4211 31.1947 13.2854 31.1947 13.1393C31.1947 12.948 31.1703 12.7428 31.1216 12.5237C31.0764 12.3045 31.019 12.0889 30.9495 11.8767C30.8799 11.6611 30.8051 11.4593 30.7251 11.2715C30.6486 11.0837 30.579 10.9271 30.5164 10.8019L31.2416 10.4158C31.2729 10.4784 31.3129 10.5654 31.3616 10.6767C31.4138 10.7845 31.4677 10.9098 31.5234 11.0524C31.5825 11.1915 31.6416 11.3445 31.7008 11.5115C31.7599 11.6784 31.8138 11.8524 31.8625 12.0332C31.9112 12.2106 31.9495 12.3932 31.9773 12.5811C32.0086 12.7654 32.0242 12.9463 32.0242 13.1237C32.0242 13.4054 31.9842 13.6611 31.9042 13.8906C31.8277 14.1202 31.7095 14.3167 31.5495 14.4802C31.3929 14.6402 31.1947 14.7637 30.9547 14.8506C30.7251 14.9341 30.4573 14.9758 30.1512 14.9758C30.1408 14.9758 30.1286 14.9758 30.1147 14.9758C29.9895 14.9758 29.8625 14.955 29.7338 14.9132C29.6051 14.868 29.4799 14.8071 29.3582 14.7306C29.2364 14.6506 29.1216 14.5584 29.0138 14.4541C28.9095 14.3498 28.8173 14.2367 28.7373 14.115C28.5077 14.3793 28.2608 14.5898 27.9964 14.7463C27.7321 14.8993 27.459 14.9758 27.1773 14.9758C27.0555 14.9758 26.9286 14.9584 26.7964 14.9237C26.6677 14.8854 26.5425 14.8298 26.4208 14.7567C26.299 14.6837 26.186 14.5932 26.0816 14.4854C25.9808 14.3776 25.899 14.2524 25.8364 14.1098C25.7216 14.2315 25.6016 14.3428 25.4764 14.4437C25.3547 14.5411 25.2225 14.6245 25.0799 14.6941C24.9373 14.7637 24.7825 14.8176 24.6155 14.8558C24.4486 14.8941 24.2642 14.9132 24.0625 14.9132H23.9582V14.0993H24.0625ZM29.1129 8.87671L29.8747 8.11497L30.6468 8.88714L29.8851 9.64888L29.1129 8.87671ZM26.9947 8.87149L27.7564 8.10453L28.5286 8.87671L27.7668 9.64367L26.9947 8.87149ZM28.1582 7.35845L28.8468 6.66975L29.5408 7.36367L28.8521 8.05236L28.1582 7.35845ZM33.6709 14.9132C33.7057 14.3428 33.7301 13.8106 33.744 13.3167C33.7614 12.8193 33.7701 12.3324 33.7701 11.8558C33.7701 11.2054 33.7579 10.6089 33.7335 10.0663C33.7127 9.52019 33.6866 9.04193 33.6553 8.63149C33.624 8.21758 33.5927 7.87497 33.5614 7.60366C33.5335 7.33236 33.5127 7.14106 33.4988 7.02975L34.3179 6.90453C34.3388 7.05062 34.3596 7.22106 34.3805 7.41584C34.4014 7.61062 34.4188 7.81758 34.4327 8.03671C34.4501 8.25236 34.4657 8.47323 34.4796 8.69932C34.4935 8.92193 34.5057 9.1341 34.5162 9.33584C34.5301 9.5341 34.5405 9.71323 34.5475 9.87323C34.5544 10.0332 34.5596 10.1584 34.5631 10.2489C34.5701 10.4924 34.5753 10.748 34.5788 11.0158C34.5857 11.2802 34.5892 11.5637 34.5892 11.8663C34.5892 12.3358 34.5822 12.8263 34.5683 13.3376C34.5544 13.8454 34.5283 14.3863 34.4901 14.9602L33.6709 14.9132ZM38.6682 14.6576C38.6682 14.9428 38.6248 15.2211 38.5378 15.4924C38.4543 15.7671 38.3361 16.0315 38.183 16.2854C38.0335 16.5393 37.8543 16.7811 37.6456 17.0106C37.4404 17.2437 37.2161 17.4628 36.9726 17.668C36.7291 17.8767 36.4717 18.068 36.2004 18.2419C35.9291 18.4193 35.6543 18.5793 35.3761 18.7219C35.31 18.5828 35.2491 18.4593 35.1935 18.3515C35.1343 18.2437 35.0735 18.1237 35.0108 17.9915C35.2335 17.8698 35.4613 17.7324 35.6943 17.5793C35.9308 17.4263 36.1587 17.2611 36.3778 17.0837C36.5969 16.9063 36.8004 16.715 36.9882 16.5098C37.1795 16.308 37.343 16.0958 37.4787 15.8732C37.6143 15.6541 37.7152 15.4245 37.7813 15.1845C37.8265 15.0141 37.8491 14.8419 37.8491 14.668C37.8491 14.595 37.8456 14.5202 37.8387 14.4437C37.8178 14.2558 37.783 14.0558 37.7343 13.8437C37.6891 13.6315 37.6369 13.4211 37.5778 13.2124C37.5222 13.0037 37.4648 12.8054 37.4056 12.6176C37.35 12.4263 37.3013 12.2611 37.2595 12.1219L38.0422 11.8819C38.1743 12.2715 38.3048 12.6071 38.4335 12.8889C38.5656 13.1671 38.7013 13.3967 38.8404 13.5776C38.983 13.755 39.1291 13.8871 39.2787 13.9741C39.4317 14.0576 39.5952 14.0993 39.7691 14.0993H39.8735V14.9132H39.7691C39.7204 14.9132 39.6526 14.9115 39.5656 14.908C39.4787 14.9011 39.383 14.8819 39.2787 14.8506C39.1743 14.8158 39.0682 14.7619 38.9604 14.6889C38.8526 14.6158 38.7552 14.5132 38.6682 14.3811V14.6576ZM39.6613 14.0993H40.6161C40.6126 14.0576 40.6108 14.0141 40.6108 13.9689C40.6108 13.8019 40.6282 13.6002 40.663 13.3637C40.6978 13.1271 40.7535 12.8715 40.83 12.5967C40.91 12.3184 41.0091 12.0454 41.1274 11.7776C41.2456 11.5098 41.3795 11.2698 41.5291 11.0576C41.6787 10.8454 41.8439 10.675 42.0248 10.5463C42.2056 10.4176 42.3969 10.3532 42.5987 10.3532C42.7378 10.3532 42.8665 10.3863 42.9848 10.4524C43.103 10.515 43.2108 10.6002 43.3082 10.708C43.4056 10.8158 43.4908 10.9428 43.5639 11.0889C43.6404 11.235 43.7048 11.3898 43.7569 11.5532C43.8091 11.7132 43.8474 11.8802 43.8717 12.0541C43.8995 12.2245 43.9135 12.3898 43.9135 12.5498C43.9135 12.8837 43.8508 13.1828 43.7256 13.4471C43.6004 13.708 43.4317 13.9341 43.2195 14.1254C43.0074 14.3132 42.7639 14.468 42.4891 14.5898C42.2143 14.7115 41.9256 14.8002 41.623 14.8558C41.6682 14.9706 41.7308 15.1098 41.8108 15.2732C41.8908 15.4402 41.9848 15.6089 42.0926 15.7793C42.2039 15.9532 42.3256 16.1167 42.4578 16.2698C42.5935 16.4228 42.7378 16.5445 42.8908 16.635C42.8839 16.5689 42.8804 16.5028 42.8804 16.4367C42.8804 16.1689 42.9326 15.8958 43.0369 15.6176C43.1413 15.3428 43.2995 15.0889 43.5117 14.8558C43.7239 14.6228 43.9726 14.4384 44.2578 14.3028C44.543 14.1671 44.8456 14.0993 45.1656 14.0993H45.27V14.9132H45.1239C44.9117 14.9132 44.71 14.9637 44.5187 15.0645C44.3274 15.1689 44.1604 15.3028 44.0178 15.4663C43.8752 15.6332 43.7604 15.8211 43.6735 16.0298C43.59 16.2384 43.5482 16.4506 43.5482 16.6663C43.5482 16.8437 43.5778 17.0141 43.6369 17.1776C43.6995 17.3445 43.8004 17.5063 43.9395 17.6628L43.3969 18.315C43.0456 18.0958 42.7326 17.8576 42.4578 17.6002C42.183 17.3463 41.9413 17.0802 41.7326 16.8019C41.5239 16.5271 41.3465 16.2471 41.2004 15.9619C41.0543 15.6767 40.9361 15.395 40.8456 15.1167L40.7726 14.9132H39.6613V14.0993ZM42.5882 11.2089C42.4978 11.2089 42.4056 11.2489 42.3117 11.3289C42.2178 11.4089 42.1274 11.515 42.0404 11.6471C41.9535 11.7793 41.8717 11.9306 41.7952 12.1011C41.7221 12.2715 41.6561 12.4489 41.5969 12.6332C41.5413 12.8176 41.4961 13.0019 41.4613 13.1863C41.43 13.3671 41.4143 13.5358 41.4143 13.6924C41.4143 13.7411 41.4161 13.795 41.4195 13.8541C41.4265 13.9132 41.4335 13.9724 41.4404 14.0315C41.7117 14.0315 41.9517 13.988 42.1604 13.9011C42.3726 13.8106 42.5517 13.6889 42.6978 13.5358C42.8439 13.3828 42.9552 13.2037 43.0317 12.9984C43.1082 12.7932 43.1465 12.5724 43.1465 12.3358C43.1465 12.228 43.1274 12.1098 43.0891 11.9811C43.0543 11.8489 43.0091 11.7254 42.9535 11.6106C42.9013 11.4958 42.8421 11.4002 42.7761 11.3237C42.71 11.2471 42.6474 11.2089 42.5882 11.2089ZM45.168 14.0993C45.4741 14.0993 45.7332 14.0506 45.9454 13.9532C46.161 13.8524 46.3471 13.7202 46.5036 13.5567C46.6601 13.3932 46.7958 13.2071 46.9106 12.9984C47.0288 12.7863 47.1436 12.5689 47.2549 12.3463C47.3454 12.1584 47.4341 11.9811 47.521 11.8141C47.6114 11.6437 47.7123 11.4924 47.8236 11.3602C48.1193 11.0019 48.4723 10.8228 48.8828 10.8228C49.3732 10.8228 49.7836 11.0211 50.1141 11.4176C50.2428 11.5741 50.3471 11.7567 50.4271 11.9654C50.5071 12.1706 50.5628 12.3863 50.5941 12.6124C50.6114 12.7515 50.6201 12.8889 50.6201 13.0245C50.6201 13.115 50.6114 13.2402 50.5941 13.4002C50.5801 13.5602 50.5349 13.7358 50.4584 13.9271C50.3645 14.1567 50.2393 14.3498 50.0828 14.5063C49.9262 14.6593 49.7488 14.7619 49.5506 14.8141C49.4288 14.8454 49.2967 14.8611 49.1541 14.8611C48.8932 14.8611 48.6062 14.7984 48.2932 14.6732C47.9628 14.5411 47.5941 14.3271 47.1871 14.0315C47.0688 14.1915 46.9332 14.3271 46.7801 14.4384C46.6271 14.5498 46.4619 14.6419 46.2845 14.715C46.1106 14.7845 45.9297 14.835 45.7419 14.8663C45.5541 14.8976 45.3645 14.9132 45.1732 14.9132H45.0636V14.0993H45.168ZM47.6619 13.3532C47.8114 13.4645 47.9628 13.5637 48.1158 13.6506C48.2723 13.7341 48.4219 13.8054 48.5645 13.8645C48.7106 13.9237 48.8462 13.9689 48.9714 14.0002C49.1001 14.0315 49.2097 14.0471 49.3001 14.0471C49.3349 14.0471 49.368 14.0454 49.3993 14.0419C49.4306 14.0384 49.4636 14.0315 49.4984 14.0211C49.6028 13.9863 49.6862 13.9063 49.7488 13.7811C49.8149 13.6524 49.8584 13.5028 49.8793 13.3324C49.8897 13.2524 49.8949 13.1706 49.8949 13.0871C49.8949 12.9932 49.8845 12.8732 49.8636 12.7271C49.8428 12.5811 49.7923 12.4263 49.7123 12.2628C49.6323 12.0993 49.5228 11.9602 49.3836 11.8454C49.248 11.7306 49.081 11.6645 48.8828 11.6471C48.8688 11.6471 48.8567 11.6471 48.8462 11.6471C48.7732 11.6471 48.7036 11.6663 48.6375 11.7045C48.5749 11.7428 48.5088 11.8071 48.4393 11.8976C48.3732 11.9845 48.3036 12.0958 48.2306 12.2315C48.1575 12.3671 48.0758 12.5254 47.9854 12.7063L47.6619 13.3532Z" fill="#878787"/>
<path d="M59.5078 12.415V15.7825C59.5078 19.15 60.8578 20.5 64.2253 20.5H68.2678C71.6353 20.5 72.9853 19.15 72.9853 15.7825V12.415" stroke="#878787" stroke-width="0.8" stroke-linecap="round" stroke-linejoin="round"/>
<path d="M66.2504 13C67.6229 13 68.6354 11.8825 68.5004 10.51L68.0054 5.5H64.5029L64.0004 10.51C63.8654 11.8825 64.8779 13 66.2504 13Z" stroke="#878787" stroke-width="0.8" stroke-linecap="round" stroke-linejoin="round"/>
<path d="M70.9821 13C72.4971 13 73.6071 11.77 73.4571 10.2625L73.2471 8.2C72.9771 6.25 72.2271 5.5 70.2621 5.5H67.9746L68.4996 10.7575C68.6271 11.995 69.7446 13 70.9821 13Z" stroke="#878787" stroke-width="0.8" stroke-linecap="round" stroke-linejoin="round"/>
<path d="M61.4798 13C62.7173 13 63.8348 11.995 63.9548 10.7575L64.1198 9.1L64.4798 5.5H62.1923C60.2273 5.5 59.4773 6.25 59.2073 8.2L59.0048 10.2625C58.8548 11.77 59.9648 13 61.4798 13Z" stroke="#878787" stroke-width="0.8" stroke-linecap="round" stroke-linejoin="round"/>
<path d="M66.25 16.75C64.9975 16.75 64.375 17.3725 64.375 18.625V20.5H68.125V18.625C68.125 17.3725 67.5025 16.75 66.25 16.75Z" stroke="#878787" stroke-width="0.8" stroke-linecap="round" stroke-linejoin="round"/>
</svg>
