<svg width="48" height="49" viewBox="0 0 48 49" fill="none" xmlns="http://www.w3.org/2000/svg">
<path fill-rule="evenodd" clip-rule="evenodd" d="M14 12.0004C14.0634 12.0004 14.136 12.0009 14.2136 12.0015C14.4078 12.003 14.6335 12.0047 14.8255 11.9986C15.1034 11.9899 15.4808 11.964 15.8578 11.8473C16.2625 11.722 16.7319 11.4712 17.0744 10.9785C17.4057 10.502 17.5 9.9683 17.5 9.49994C17.5 9.03166 17.4058 8.49778 17.0741 8.02114C16.7312 7.52828 16.2614 7.2778 15.8568 7.15286C15.4798 7.03646 15.1025 7.01074 14.8248 7.00216C14.6339 6.99628 14.4089 6.998 14.2153 6.99948C14.137 7.00008 14.0637 7.00064 14 7.00064V12.0004Z" fill="#626754" fill-opacity="0.57"/>
<path d="M4.29354 26.6172C4.1009 27.547 4 28.5074 4 29.49C4 33.3196 5.53284 36.8138 8.05508 39.4634C8.9553 40.4092 9.4054 40.882 11.2925 41.691C13.1796 42.5 14.4808 42.5 17.0832 42.5H22.9168C25.5192 42.5 26.8204 42.5 28.7076 41.691C30.5946 40.882 31.0448 40.4092 31.945 39.4634C34.4672 36.8138 36 33.3196 36 29.49C36 29.2248 35.9926 28.961 35.9782 28.699C34.7846 28.0674 32.7786 27.4754 30.628 27.1314C24.489 26.1494 21.2512 31.108 15.0672 30.4374C10.6389 29.9572 7.19518 27.8022 4.29354 26.6172Z" fill="#626754"/>
<path d="M15.0676 30.4374C21.2516 31.108 24.4894 26.1494 30.6284 27.1314C32.779 27.4754 34.785 28.0674 35.9786 28.699C35.5396 20.788 28.5538 14.5 20.0004 14.5C12.2126 14.5 5.72435 19.7128 4.29395 26.6172C7.19559 27.8022 10.6393 29.9572 15.0676 30.4374Z" fill="#626754" fill-opacity="0.57"/>
<path d="M26 15.5896V10.5C26 7.67158 26 6.25736 25.1214 5.37868C24.2426 4.5 22.8284 4.5 20 4.5C17.1716 4.5 15.7574 4.5 14.8787 5.37868C14.4776 5.77972 14.2596 6.29232 14.1411 7.00004L14.2153 6.99948C14.4089 6.998 14.6339 6.99628 14.8248 7.00216C15.1025 7.01074 15.4798 7.03646 15.8568 7.15286C16.2614 7.2778 16.7312 7.52828 17.0741 8.02114C17.4058 8.49778 17.5 9.03166 17.5 9.49994C17.5 9.9683 17.4057 10.502 17.0744 10.9785C16.7319 11.4712 16.2625 11.722 15.8578 11.8473C15.4808 11.964 15.1034 11.9899 14.8255 11.9986C14.6335 12.0047 14.4076 12.003 14.2135 12.0015C14.1359 12.0009 14.0633 12.0004 14 12.0004V15.5896C15.8529 14.8869 17.8782 14.5 20 14.5C22.1218 14.5 24.1472 14.8869 26 15.5896Z" fill="#626754"/>
<path d="M4.29354 26.6172C4.1009 27.547 4 28.5074 4 29.49C4 33.3196 5.53284 36.8138 8.05508 39.4634C8.9553 40.4092 9.4054 40.882 11.2925 41.691C13.1796 42.5 14.4808 42.5 17.0832 42.5H22.9168C25.5192 42.5 26.8204 42.5 28.7076 41.691C30.5946 40.882 31.0448 40.4092 31.945 39.4634C34.4672 36.8138 36 33.3196 36 29.49C36 29.2248 35.9926 28.961 35.9782 28.699C34.7846 28.0674 32.7786 27.4754 30.628 27.1314C24.489 26.1494 21.2512 31.108 15.0672 30.4374C10.6389 29.9572 7.19518 27.8022 4.29354 26.6172Z" fill="#626754"/>
<path d="M41.0961 11.2567C43.6025 12.5494 44.6959 15.0494 43.5383 16.8407C42.3805 18.6319 39.4103 19.036 36.9041 17.7433C34.3977 16.4506 33.3043 13.9506 34.4619 12.1593C35.6197 10.3681 38.5899 9.964 41.0961 11.2567Z" fill="#626754"/>
<path d="M26 12H28.6394C29.959 12 31.2604 12.3072 32.4406 12.8974L34.0004 13.6773C34.01 13.1457 34.1588 12.6282 34.4618 12.1593C34.7402 11.7288 35.123 11.3785 35.579 11.1125L33.7822 10.2141C32.1854 9.41568 30.4248 9 28.6394 9H26V12Z" fill="#626754" fill-opacity="0.57"/>
</svg>
