<svg width="28" height="28" viewBox="0 0 28 28" fill="none" xmlns="http://www.w3.org/2000/svg">
<rect width="28" height="28" rx="4" fill="#ACC294"/>
<path d="M21.8345 6.18341C21.9588 6.08149 22.0482 5.94184 22.1663 5.8335C22.1008 6.3062 21.9811 6.76928 21.8751 7.23356C21.4936 8.79615 21.0088 10.3311 20.405 11.8134C19.8751 13.1095 19.2505 14.3651 18.4971 15.5321C17.6933 16.766 16.7372 17.9068 15.5823 18.7832C14.5956 19.5396 13.4566 20.0806 12.2566 20.3141C11.7623 20.4104 11.2596 20.459 10.757 20.4606C10.3752 20.459 10.0108 20.3225 9.6589 20.1801C9.37822 20.8314 9.14603 21.5067 8.88277 22.1668C8.73429 22.1644 8.59982 22.0862 8.46043 22.0416C8.08354 21.8924 7.69718 21.7704 7.32484 21.6086C7.78771 20.3936 8.23089 19.1685 8.76724 17.9867C9.37368 16.648 10.1025 15.3603 11.0312 14.2435C11.8456 13.2612 12.8085 12.4169 13.8751 11.7592C15.1732 10.9554 16.6054 10.4129 18.0694 10.069C17.3872 10.0602 16.7111 10.1878 16.0429 10.3218C14.6505 10.6164 13.2979 11.1376 12.0657 11.888C11.0377 12.5204 10.0987 13.321 9.32027 14.2744C8.79338 14.9145 8.34301 15.6235 7.96574 16.3723C7.68885 16.9109 7.47294 17.4807 7.26499 18.0517C7.19946 18.0015 7.13999 17.9429 7.08923 17.8767C6.63696 17.3073 6.25212 16.6677 6.0203 15.9622C5.83508 15.3932 5.77523 14.7728 5.89531 14.1817C6.10743 13.0521 6.64113 12.008 7.33696 11.1308C8.11081 10.1605 9.11876 9.4057 10.2369 8.94824C11.1949 8.54656 12.2252 8.41574 13.2339 8.23035C14.188 8.07706 15.1407 7.90812 16.0978 7.7769C16.9084 7.65571 17.7187 7.52931 18.5243 7.37401C19.3664 7.20548 20.2107 7.01366 21.0092 6.67458C21.3001 6.54457 21.5864 6.39288 21.8345 6.18341Z" fill="white"/>
</svg>
