<svg width="21" height="22" viewBox="0 0 21 22" fill="none" xmlns="http://www.w3.org/2000/svg">
<path d="M0.5 21L2.5 19M11 20C9.75244 20 8.5171 19.7543 7.36451 19.2769C6.21191 18.7994 5.16464 18.0997 4.28249 17.2175C3.40033 16.3354 2.70056 15.2881 2.22314 14.1355C1.74572 12.9829 1.5 11.7476 1.5 10.5C1.5 9.25244 1.74572 8.0171 2.22314 6.86451C2.70056 5.71191 3.40033 4.66464 4.28249 3.78249C5.16464 2.90033 6.21191 2.20056 7.36451 1.72314C8.5171 1.24572 9.75244 1 11 1C13.5196 1 15.9359 2.00089 17.7175 3.78249C19.4991 5.56408 20.5 7.98044 20.5 10.5C20.5 13.0196 19.4991 15.4359 17.7175 17.2175C15.9359 18.9991 13.5196 20 11 20Z" stroke="#878787" stroke-linecap="round" stroke-linejoin="round"/>
</svg>
