<svg width="49" height="49" viewBox="0 0 49 49" fill="none" xmlns="http://www.w3.org/2000/svg">
<path d="M31.9173 26.72C32.0573 28.35 30.7673 29.75 29.1273 29.75H18.4773C17.0373 29.75 15.7773 28.57 15.6673 27.14L15.1273 19.64C15.0073 17.98 16.2673 16.63 17.9373 16.63H30.8473" stroke="#6B6B6B" stroke-miterlimit="10" stroke-linecap="round" stroke-linejoin="round"/>
<path d="M34.667 14.75H32.927C31.847 14.75 30.997 15.68 31.087 16.75L31.587 22.8" stroke="#6B6B6B" stroke-miterlimit="10" stroke-linecap="round" stroke-linejoin="round"/>
<path d="M20.417 34.75C19.7266 34.75 19.167 34.1904 19.167 33.5C19.167 32.8096 19.7266 32.25 20.417 32.25C21.1073 32.25 21.667 32.8096 21.667 33.5C21.667 34.1904 21.1073 34.75 20.417 34.75Z" stroke="#6B6B6B" stroke-miterlimit="10" stroke-linecap="round" stroke-linejoin="round"/>
<path d="M28.417 34.75C27.7266 34.75 27.167 34.1904 27.167 33.5C27.167 32.8096 27.7266 32.25 28.417 32.25C29.1073 32.25 29.667 32.8096 29.667 33.5C29.667 34.1904 29.1073 34.75 28.417 34.75Z" stroke="#6B6B6B" stroke-miterlimit="10" stroke-linecap="round" stroke-linejoin="round"/>
<path d="M27.667 20.75H15.667" stroke="#6B6B6B" stroke-miterlimit="10" stroke-linecap="round" stroke-linejoin="round"/>
</svg>
