<svg width="22" height="23" viewBox="0 0 22 23" fill="none" xmlns="http://www.w3.org/2000/svg">
<path d="M18.6124 13.5675C18.6465 13.9726 18.596 14.3804 18.4641 14.7651C18.3323 15.1496 18.122 15.5027 17.8466 15.8018C17.5712 16.1008 17.2367 16.3395 16.8643 16.5025C16.4918 16.6656 16.0895 16.7495 15.6829 16.749H4.50041C2.98841 16.749 1.66541 15.51 1.54991 14.0085L0.982912 6.13345C0.856912 4.39045 2.17991 2.97295 3.93341 2.97295H17.4889M21.4999 1H19.6729C18.5389 1 17.6464 1.9765 17.7409 3.1L18.2659 9.4525M14.1499 7.3H1.54991M6.53741 22C6.18934 22 5.85544 21.8617 5.60933 21.6156C5.36319 21.3695 5.22491 21.0356 5.22491 20.6875C5.22491 20.3394 5.36319 20.0055 5.60933 19.7594C5.85544 19.5133 6.18934 19.375 6.53741 19.375C6.88549 19.375 7.21939 19.5133 7.46552 19.7594C7.71166 20.0055 7.84991 20.3394 7.84991 20.6875C7.84991 21.0356 7.71166 21.3695 7.46552 21.6156C7.21939 21.8617 6.88549 22 6.53741 22ZM14.9374 22C14.5893 22 14.2554 21.8617 14.0093 21.6156C13.7632 21.3695 13.6249 21.0356 13.6249 20.6875C13.6249 20.3394 13.7632 20.0055 14.0093 19.7594C14.2554 19.5133 14.5893 19.375 14.9374 19.375C15.2855 19.375 15.6194 19.5133 15.8655 19.7594C16.1117 20.0055 16.2499 20.3394 16.2499 20.6875C16.2499 21.0356 16.1117 21.3695 15.8655 21.6156C15.6194 21.8617 15.2855 22 14.9374 22Z" stroke="#6B6B6B" stroke-miterlimit="10" stroke-linecap="round" stroke-linejoin="round"/>
</svg>
