<svg width="48" height="49" viewBox="0 0 48 49" fill="none" xmlns="http://www.w3.org/2000/svg">
<path fill-rule="evenodd" clip-rule="evenodd" d="M14.583 10.0714C9.57598 11.5464 6.07388 16.0945 6.00114 21.3328C6 21.415 6 21.5074 6 21.6922V26.3386C6.20394 26.3384 6.4112 26.3798 6.60958 26.4672C17.6813 31.3548 30.3194 31.3548 41.3912 26.4672C41.5894 26.3798 41.7964 26.3384 42 26.3386V21.6922C42 21.5074 42 21.415 41.9988 21.3328C41.9262 16.0945 38.424 11.5464 33.417 10.0714C32.8616 9.8894 31.1784 9.56398 30.4064 9.42402C26.1664 8.70372 21.8338 8.7037 17.5938 9.424C16.7845 9.57716 15.0494 9.92108 14.583 10.0714ZM20 24.352C19.1716 24.352 18.5 25.019 18.5 25.8418C18.5 26.6648 19.1716 27.3318 20 27.3318H28C28.8284 27.3318 29.5 26.6648 29.5 25.8418C29.5 25.019 28.8284 24.352 28 24.352H20Z" fill="#626754"/>
<path d="M17.7463 8.4835C18.3578 6.73298 20.033 5.47978 21.999 5.47978H25.999C27.9652 5.47978 29.6404 6.73298 30.2518 8.4835C30.3428 8.74376 30.387 9.0441 30.4054 9.42366C31.1774 9.56362 32.8606 9.88906 33.4162 10.0711V9.94906C33.4162 9.27202 33.393 8.38522 33.0862 7.50672C32.0688 4.59428 29.282 2.5 25.999 2.5H21.999C18.7161 2.5 15.9294 4.59428 14.912 7.50672C14.6051 8.38522 14.582 9.27202 14.582 9.94906V10.0711C15.0484 9.92074 16.7836 9.57682 17.5928 9.42364C17.6111 9.0441 17.6553 8.74376 17.7463 8.4835Z" fill="#626754" fill-opacity="0.57"/>
<path d="M42 29.4533C40.2 30.2171 38.3628 30.8613 36.5004 31.3859V33.7875C36.5004 34.6103 35.8288 35.2775 35.0004 35.2775C34.172 35.2775 33.5004 34.6103 33.5004 33.7875V32.1233C24.3452 34.0505 14.7365 33.1603 6 29.4531V32.5457C6 36.7531 8.94202 40.3959 13.0771 41.3085C20.2712 42.8965 27.7288 42.8965 34.923 41.3085C39.058 40.3959 42 36.7531 42 32.5457V29.4533Z" fill="#626754" fill-opacity="0.57"/>
</svg>
